<svg width="21" height="21" viewBox="0 0 21 21" fill="none" xmlns="http://www.w3.org/2000/svg">
<g id="ic:baseline-telegram">
<path id="Vector" d="M10.57 1.73831C5.77225 1.73831 1.87842 5.63214 1.87842 10.4299C1.87842 15.2277 5.77225 19.1215 10.57 19.1215C15.3678 19.1215 19.2616 15.2277 19.2616 10.4299C19.2616 5.63214 15.3678 1.73831 10.57 1.73831ZM14.6029 7.64859C14.4725 9.02186 13.9076 12.3594 13.6208 13.8978C13.4991 14.5497 13.2557 14.767 13.0297 14.7931C12.5256 14.8365 12.1432 14.4628 11.6565 14.1412C10.8916 13.6371 10.457 13.3242 9.71823 12.8375C8.85776 12.2725 9.41403 11.9596 9.90945 11.4555C10.0398 11.3251 12.2649 9.29999 12.3083 9.11747C12.3144 9.08983 12.3136 9.06112 12.306 9.03386C12.2984 9.0066 12.2843 8.98159 12.2649 8.96102C12.2127 8.91756 12.1432 8.93495 12.0823 8.94364C12.0041 8.96102 10.7873 9.76934 8.41449 11.3686C8.06683 11.6033 7.75393 11.7249 7.4758 11.7163C7.1629 11.7076 6.57188 11.5424 6.1286 11.3947C5.58103 11.2208 5.15515 11.1252 5.18991 10.821C5.2073 10.6646 5.42459 10.5081 5.83309 10.343C8.37104 9.23915 10.0572 8.50906 10.9003 8.1614C13.3165 7.15317 13.812 6.97934 14.1423 6.97934C14.2118 6.97934 14.3769 6.99672 14.4812 7.08364C14.5681 7.15317 14.5942 7.24878 14.6029 7.31831C14.5942 7.37046 14.6116 7.52691 14.6029 7.64859Z" fill="white"/>
</g>
</svg>
