<svg width="20" height="17" viewBox="0 0 20 17" fill="none" xmlns="http://www.w3.org/2000/svg">
<path id="Vector" d="M19.7205 1.96759C19.0172 2.2952 18.2643 2.52059 17.4708 2.62281C18.2805 2.10663 18.8995 1.29014 19.1947 0.317455C18.4352 0.787289 17.5951 1.1276 16.7017 1.31998C15.9895 0.509833 14.9712 0 13.8413 0C11.6752 0 9.91958 1.86473 9.91958 4.16311C9.91958 4.4939 9.95723 4.81135 10.0224 5.1123C6.76394 4.9504 3.8754 3.28693 1.94353 0.773956C1.60412 1.38601 1.41111 2.09711 1.41111 2.87106C1.41111 4.31929 2.10487 5.58912 3.15356 6.33577C2.51239 6.31609 1.90887 6.12752 1.38004 5.81705V5.86721C1.38004 7.88686 2.7305 9.57064 4.52314 9.95413C4.19628 10.0462 3.84731 10.0995 3.49297 10.0995C3.2414 10.0995 3.00119 10.0735 2.76157 10.0265C3.2659 11.6798 4.70957 12.8836 6.43051 12.9198C5.0926 14.0341 3.39676 14.6982 1.56946 14.6982C1.25814 14.6982 0.947417 14.6823 0.635498 14.6423C2.37854 15.8232 4.43589 16.514 6.65817 16.514C13.8688 16.514 17.809 10.1681 17.809 4.67231C17.809 4.49707 17.809 4.31866 17.7964 4.13962C18.5655 3.5574 19.2312 2.81964 19.757 1.98346L19.7205 1.96759Z" fill="white"/>
</svg>
